<svg width="50" height="50" viewBox="0 0 50 50" fill="none" xmlns="http://www.w3.org/2000/svg">
<path opacity="0.1" d="M0 2C0 0.895432 0.895431 0 2 0H50V50H2C0.895432 50 0 49.1046 0 48V2Z" fill="#B3D2FF"/>
<g opacity="0.45">
<path fill-rule="evenodd" clip-rule="evenodd" d="M19.5001 25C19.5001 24.616 19.6471 24.232 19.9395 23.9395L27.4392 16.4399C28.0257 15.8534 28.9737 15.8534 29.5601 16.4399C30.1466 17.0263 30.1466 17.9743 29.5601 18.5608L23.1209 25L29.5601 31.4392C30.1466 32.0257 30.1466 32.9737 29.5601 33.5601C28.9737 34.1466 28.0257 34.1466 27.4392 33.5601L19.9395 26.0605C19.6471 25.768 19.5001 25.384 19.5001 25" fill="#2172E8"/>
</g>
</svg>
