<svg width="50" height="50" viewBox="0 0 50 50" fill="none" xmlns="http://www.w3.org/2000/svg">
<path opacity="0.1" d="M0 0H48C49.1046 0 50 0.895431 50 2V48C50 49.1046 49.1046 50 48 50H0V0Z" fill="#B3D2FF"/>
<g opacity="0.45">
<path fill-rule="evenodd" clip-rule="evenodd" d="M30.4999 25C30.4999 25.384 30.3529 25.768 30.0605 26.0605L22.5608 33.5601C21.9743 34.1466 21.0263 34.1466 20.4399 33.5601C19.8534 32.9737 19.8534 32.0257 20.4399 31.4392L26.8791 25L20.4399 18.5608C19.8534 17.9743 19.8534 17.0263 20.4399 16.4399C21.0263 15.8534 21.9743 15.8534 22.5608 16.4399L30.0605 23.9395C30.3529 24.232 30.4999 24.616 30.4999 25Z" fill="#2172E8"/>
</g>
</svg>
