<svg width="37" height="37" viewBox="0 0 37 37" fill="none" xmlns="http://www.w3.org/2000/svg">
<path d="M15.4199 18.5473C15.4199 16.843 16.8007 15.461 18.5046 15.461C20.2084 15.461 21.59 16.843 21.59 18.5473C21.59 20.2516 20.2084 21.6336 18.5046 21.6336C16.8007 21.6336 15.4199 20.2516 15.4199 18.5473ZM13.752 18.5473C13.752 21.1729 15.8797 23.3013 18.5046 23.3013C21.1294 23.3013 23.2572 21.1729 23.2572 18.5473C23.2572 15.9217 21.1294 13.7933 18.5046 13.7933C15.8797 13.7933 13.752 15.9217 13.752 18.5473ZM22.3347 13.6048C22.3346 13.8245 22.3996 14.0394 22.5216 14.2221C22.6436 14.4049 22.817 14.5473 23.0199 14.6315C23.2228 14.7157 23.4461 14.7378 23.6616 14.695C23.877 14.6522 24.075 14.5465 24.2304 14.3911C24.3858 14.2358 24.4916 14.0379 24.5346 13.8224C24.5775 13.6069 24.5556 13.3835 24.4716 13.1805C24.3876 12.9775 24.2454 12.8039 24.0628 12.6817C23.8802 12.5596 23.6654 12.4943 23.4458 12.4943H23.4453C23.1509 12.4944 22.8685 12.6114 22.6603 12.8197C22.452 13.0279 22.3349 13.3103 22.3347 13.6048ZM14.7653 26.0833C13.863 26.0421 13.3725 25.8918 13.0465 25.7648C12.6144 25.5965 12.3061 25.3961 11.9819 25.0723C11.6578 24.7484 11.4571 24.4403 11.2896 24.0081C11.1626 23.6822 11.0122 23.1914 10.9712 22.2888C10.9264 21.3129 10.9174 21.0197 10.9174 18.5474C10.9174 16.075 10.9271 15.7826 10.9712 14.8059C11.0123 13.9033 11.1637 13.4135 11.2896 13.0866C11.4578 12.6544 11.6582 12.346 11.9819 12.0217C12.3056 11.6975 12.6137 11.4967 13.0465 11.3292C13.3723 11.2021 13.863 11.0518 14.7653 11.0107C15.7409 10.9658 16.034 10.9569 18.5046 10.9569C20.9751 10.9569 21.2685 10.9666 22.2449 11.0107C23.1473 11.0518 23.637 11.2033 23.9637 11.3292C24.3958 11.4967 24.7042 11.6979 25.0283 12.0217C25.3525 12.3455 25.5524 12.6544 25.7206 13.0866C25.8477 13.4125 25.998 13.9033 26.039 14.8059C26.0839 15.7826 26.0929 16.075 26.0929 18.5474C26.0929 21.0197 26.0839 21.3121 26.039 22.2888C25.9979 23.1914 25.8469 23.682 25.7206 24.0081C25.5524 24.4403 25.352 24.7487 25.0283 25.0723C24.7046 25.3958 24.3958 25.5965 23.9637 25.7648C23.6379 25.8919 23.1473 26.0422 22.2449 26.0833C21.2693 26.1281 20.9762 26.1371 18.5046 26.1371C16.0329 26.1371 15.7406 26.1281 14.7653 26.0833ZM14.6887 9.34513C13.7034 9.39001 13.0301 9.54629 12.4421 9.77516C11.8332 10.0115 11.3177 10.3286 10.8025 10.843C10.2874 11.3575 9.97125 11.874 9.73498 12.4831C9.50618 13.0716 9.34995 13.7447 9.30508 14.7303C9.25946 15.7175 9.24902 16.033 9.24902 18.5473C9.24902 21.0615 9.25946 21.3771 9.30508 22.3643C9.34995 23.3499 9.50618 24.023 9.73498 24.6115C9.97125 25.2202 10.2875 25.7373 10.8025 26.2515C11.3176 26.7658 11.8332 27.0824 12.4421 27.3194C13.0312 27.5483 13.7034 27.7045 14.6887 27.7494C15.6761 27.7943 15.9911 27.8055 18.5046 27.8055C21.0181 27.8055 21.3336 27.7951 22.3204 27.7494C23.3058 27.7045 23.9787 27.5483 24.567 27.3194C25.1756 27.0824 25.6915 26.766 26.2066 26.2515C26.7217 25.7371 27.0372 25.2202 27.2742 24.6115C27.503 24.023 27.6599 23.3499 27.7041 22.3643C27.7489 21.3764 27.7594 21.0615 27.7594 18.5473C27.7594 16.033 27.7489 15.7175 27.7041 14.7303C27.6592 13.7446 27.503 13.0712 27.2742 12.4831C27.0372 11.8743 26.7209 11.3583 26.2066 10.843C25.6923 10.3278 25.1756 10.0115 24.5678 9.77516C23.9787 9.54629 23.3058 9.38927 22.3212 9.34513C21.3343 9.30025 21.0188 9.28906 18.5053 9.28906C15.9918 9.28906 15.6761 9.29951 14.6887 9.34513Z" fill="white"/>
<path d="M15.4199 18.5473C15.4199 16.843 16.8007 15.461 18.5046 15.461C20.2084 15.461 21.59 16.843 21.59 18.5473C21.59 20.2516 20.2084 21.6336 18.5046 21.6336C16.8007 21.6336 15.4199 20.2516 15.4199 18.5473ZM13.752 18.5473C13.752 21.1729 15.8797 23.3013 18.5046 23.3013C21.1294 23.3013 23.2572 21.1729 23.2572 18.5473C23.2572 15.9217 21.1294 13.7933 18.5046 13.7933C15.8797 13.7933 13.752 15.9217 13.752 18.5473ZM22.3347 13.6048C22.3346 13.8245 22.3996 14.0394 22.5216 14.2221C22.6436 14.4049 22.817 14.5473 23.0199 14.6315C23.2228 14.7157 23.4461 14.7378 23.6616 14.695C23.877 14.6522 24.075 14.5465 24.2304 14.3911C24.3858 14.2358 24.4916 14.0379 24.5346 13.8224C24.5775 13.6069 24.5556 13.3835 24.4716 13.1805C24.3876 12.9775 24.2454 12.8039 24.0628 12.6817C23.8802 12.5596 23.6654 12.4943 23.4458 12.4943H23.4453C23.1509 12.4944 22.8685 12.6114 22.6603 12.8197C22.452 13.0279 22.3349 13.3103 22.3347 13.6048ZM14.7653 26.0833C13.863 26.0421 13.3725 25.8918 13.0465 25.7648C12.6144 25.5965 12.3061 25.3961 11.9819 25.0723C11.6578 24.7484 11.4571 24.4403 11.2896 24.0081C11.1626 23.6822 11.0122 23.1914 10.9712 22.2888C10.9264 21.3129 10.9174 21.0197 10.9174 18.5474C10.9174 16.075 10.9271 15.7826 10.9712 14.8059C11.0123 13.9033 11.1637 13.4135 11.2896 13.0866C11.4578 12.6544 11.6582 12.346 11.9819 12.0217C12.3056 11.6975 12.6137 11.4967 13.0465 11.3292C13.3723 11.2021 13.863 11.0518 14.7653 11.0107C15.7409 10.9658 16.034 10.9569 18.5046 10.9569C20.9751 10.9569 21.2685 10.9666 22.2449 11.0107C23.1473 11.0518 23.637 11.2033 23.9637 11.3292C24.3958 11.4967 24.7042 11.6979 25.0283 12.0217C25.3525 12.3455 25.5524 12.6544 25.7206 13.0866C25.8477 13.4125 25.998 13.9033 26.039 14.8059C26.0839 15.7826 26.0929 16.075 26.0929 18.5474C26.0929 21.0197 26.0839 21.3121 26.039 22.2888C25.9979 23.1914 25.8469 23.682 25.7206 24.0081C25.5524 24.4403 25.352 24.7487 25.0283 25.0723C24.7046 25.3958 24.3958 25.5965 23.9637 25.7648C23.6379 25.8919 23.1473 26.0422 22.2449 26.0833C21.2693 26.1281 20.9762 26.1371 18.5046 26.1371C16.0329 26.1371 15.7406 26.1281 14.7653 26.0833ZM14.6887 9.34513C13.7034 9.39001 13.0301 9.54629 12.4421 9.77516C11.8332 10.0115 11.3177 10.3286 10.8025 10.843C10.2874 11.3575 9.97125 11.874 9.73498 12.4831C9.50618 13.0716 9.34995 13.7447 9.30508 14.7303C9.25946 15.7175 9.24902 16.033 9.24902 18.5473C9.24902 21.0615 9.25946 21.3771 9.30508 22.3643C9.34995 23.3499 9.50618 24.023 9.73498 24.6115C9.97125 25.2202 10.2875 25.7373 10.8025 26.2515C11.3176 26.7658 11.8332 27.0824 12.4421 27.3194C13.0312 27.5483 13.7034 27.7045 14.6887 27.7494C15.6761 27.7943 15.9911 27.8055 18.5046 27.8055C21.0181 27.8055 21.3336 27.7951 22.3204 27.7494C23.3058 27.7045 23.9787 27.5483 24.567 27.3194C25.1756 27.0824 25.6915 26.766 26.2066 26.2515C26.7217 25.7371 27.0372 25.2202 27.2742 24.6115C27.503 24.023 27.6599 23.3499 27.7041 22.3643C27.7489 21.3764 27.7594 21.0615 27.7594 18.5473C27.7594 16.033 27.7489 15.7175 27.7041 14.7303C27.6592 13.7446 27.503 13.0712 27.2742 12.4831C27.0372 11.8743 26.7209 11.3583 26.2066 10.843C25.6923 10.3278 25.1756 10.0115 24.5678 9.77516C23.9787 9.54629 23.3058 9.38927 22.3212 9.34513C21.3343 9.30025 21.0188 9.28906 18.5053 9.28906C15.9918 9.28906 15.6761 9.29951 14.6887 9.34513Z" fill="white"/>
</svg>
