<svg width="37" height="37" viewBox="0 0 37 37" fill="none" xmlns="http://www.w3.org/2000/svg">
<path d="M14.2443 25.9974V16.0026H10.9251V25.9974H14.2446H14.2443ZM12.5854 14.6382C13.7426 14.6382 14.4631 13.8708 14.4631 12.9116C14.4414 11.9306 13.7426 11.1846 12.6074 11.1846C11.4714 11.1846 10.7295 11.9306 10.7295 12.9115C10.7295 13.8707 11.4497 14.6381 12.5637 14.6381H12.5851L12.5854 14.6382ZM16.0815 25.9974H19.4004V20.4164C19.4004 20.1181 19.422 19.819 19.5097 19.606C19.7496 19.0089 20.2957 18.3908 21.2128 18.3908C22.4135 18.3908 22.8941 19.3073 22.8941 20.651V25.9974H26.2129V20.2667C26.2129 17.1968 24.5757 15.7683 22.392 15.7683C20.6017 15.7683 19.8154 16.7698 19.3785 17.452H19.4006V16.003H16.0817C16.125 16.9406 16.0814 25.9977 16.0814 25.9977L16.0815 25.9974Z" fill="white"/>
</svg>
